<svg xmlns="http://www.w3.org/2000/svg" viewBox="0 0 11.63 18"><defs><style>.cls-1{fill:#2d4161;fill-rule:evenodd;}</style></defs><title>icon_資產 6</title><g id="圖層_2" data-name="圖層 2"><g id="圖層_1-2" data-name="圖層 1"><path class="cls-1" d="M1.37,0A1.22,1.22,0,0,0,.08.83,1.24,1.24,0,0,0,.55,2.29L4.84,6c1,.87,2.05,1.77,3.1,2.62.41.33.42.51,0,.87-2.41,2-4.79,4.07-7.17,6.12A1.42,1.42,0,0,0,.08,17a1.27,1.27,0,0,0,2.14.68l7.84-6.72c.3-.25.6-.5.89-.76.91-.8.91-1.5,0-2.29l-5-4.3Q4.07,2,2.22.39A1.38,1.38,0,0,0,1.37,0Z"/></g></g></svg>