<svg width="25" height="25" viewBox="0 0 25 25" fill="none" xmlns="http://www.w3.org/2000/svg">
<path fill-rule="evenodd" clip-rule="evenodd" d="M12.5271 3.89603C7.55654 3.89603 3.5271 7.92546 3.5271 12.896C3.5271 17.8666 7.55654 21.896 12.5271 21.896C17.4977 21.896 21.5271 17.8666 21.5271 12.896C21.5271 7.92546 17.4977 3.89603 12.5271 3.89603ZM1.5271 12.896C1.5271 6.82089 6.45197 1.89603 12.5271 1.89603C18.6022 1.89603 23.5271 6.82089 23.5271 12.896C23.5271 18.9712 18.6022 23.896 12.5271 23.896C6.45197 23.896 1.5271 18.9712 1.5271 12.896Z" fill="black"/>
<path fill-rule="evenodd" clip-rule="evenodd" d="M7.81999 12.1889C8.21052 11.7984 8.84368 11.7984 9.23421 12.1889L12.5271 15.4818L15.82 12.1889C16.2105 11.7984 16.8437 11.7984 17.2342 12.1889C17.6247 12.5794 17.6247 13.2126 17.2342 13.6031L13.2342 17.6031C12.8437 17.9937 12.2105 17.9937 11.82 17.6031L7.81999 13.6031C7.42947 13.2126 7.42947 12.5794 7.81999 12.1889Z" fill="black"/>
<path fill-rule="evenodd" clip-rule="evenodd" d="M12.5271 7.89603C13.0794 7.89603 13.5271 8.34374 13.5271 8.89603V16.896C13.5271 17.4483 13.0794 17.896 12.5271 17.896C11.9748 17.896 11.5271 17.4483 11.5271 16.896V8.89603C11.5271 8.34374 11.9748 7.89603 12.5271 7.89603Z" fill="black"/>
</svg>
