<svg width="15" height="15" viewBox="0 0 15 15" fill="none" xmlns="http://www.w3.org/2000/svg">
<path fill-rule="evenodd" clip-rule="evenodd" d="M14.5972 0.320237C14.9878 0.710761 14.9878 1.34393 14.5972 1.73445L2.59724 13.7345C2.20672 14.125 1.57355 14.125 1.18303 13.7345C0.792506 13.3439 0.792506 12.7108 1.18303 12.3202L13.183 0.320237C13.5736 -0.0702873 14.2067 -0.0702873 14.5972 0.320237Z" fill="black"/>
<path fill-rule="evenodd" clip-rule="evenodd" d="M1.18303 0.320237C1.57355 -0.0702873 2.20672 -0.0702873 2.59724 0.320237L14.5972 12.3202C14.9878 12.7108 14.9878 13.3439 14.5972 13.7345C14.2067 14.125 13.5736 14.125 13.183 13.7345L1.18303 1.73445C0.792506 1.34393 0.792506 0.710761 1.18303 0.320237Z" fill="black"/>
</svg>
