<svg width="20" height="20" viewBox="0 0 20 20" fill="none" xmlns="http://www.w3.org/2000/svg">
<path fill-rule="evenodd" clip-rule="evenodd" d="M9 2C5.13401 2 2 5.13401 2 9C2 12.866 5.13401 16 9 16C12.866 16 16 12.866 16 9C16 5.13401 12.866 2 9 2ZM0 9C0 4.02944 4.02944 0 9 0C13.9706 0 18 4.02944 18 9C18 13.9706 13.9706 18 9 18C4.02944 18 0 13.9706 0 9Z" fill="black"/>
<path fill-rule="evenodd" clip-rule="evenodd" d="M13.9428 13.9433C14.3333 13.5528 14.9665 13.5528 15.357 13.9433L19.707 18.2933C20.0975 18.6838 20.0975 19.317 19.707 19.7075C19.3165 20.098 18.6833 20.098 18.2928 19.7075L13.9428 15.3575C13.5523 14.967 13.5523 14.3338 13.9428 13.9433Z" fill="black"/>
</svg>
