<?xml version="1.0" encoding="UTF-8"?><svg id="_圖層_2" xmlns="http://www.w3.org/2000/svg" viewBox="0 0 1292.93 1763.89"><defs><style>.cls-1,.cls-2{fill:#a81e24;}.cls-3{fill:#f9bb4e;}.cls-3,.cls-2{fill-rule:evenodd;}</style></defs><g id="Layer_1"><g><g><path class="cls-2" d="M431.92,1063.69c-9.88-66.7,34.48-125.5,76.75-141.67,17.98-6.88,33.3-7.81,44.62,0,7.19,4.93,12.77,13.42,16.39,26.09,4.69,16.48,16.27,43.8,35.12,46.1,13.41,1.64,19.03-6.83,21.16-17.05,13.48,41.54,46.98,3.62,56.31-29.05,3.62-12.76,9.52-21.16,16.83-26.09,12.11-8.16,28.14-6.86,44.58,0,3.5,1.45,7.03,3.18,10.56,5.12,38.58,21.29,74.8,75.64,65.78,136.55-17.14,115.78-103.38,88.69-169.09,159.06-13.2,14.16-23.64,31.33-25.16,46.22-1.55-14.89-11.95-32.06-25.16-46.22-65.73-70.37-151.55-43.28-168.7-159.06m613.53,176.55c-110.98,99.22-257.45,159.6-418.06,159.6s-313.12-62.9-424.88-165.82c6.95-4.7,14.91-8.52,24.05-11.22,86.3-25.38,248.34,3.01,336.09,49.11,19.03,9.99,58.94,41.37,63.12,4.26,4.16,37.01,43.67,5.93,62.67-4.02,77.38-40.56,258.86-83.13,357-31.91Zm162.02-228.4c-1.31,3.18-2.67,6.39-4.03,9.55l4.03-9.55Zm47.34-239.4c0,83.55-16.36,163.25-45.98,236.14-4.03,4.65-128.02,56.19-187.5,4.48-87.61-76.18-130.83-139.29-244.55-188.87-64.86-28.27-78.45-11.17-125.8,36.05-21.16,21.11-24.25,39.19-24.91,61.77-.03,1-.08,2.01-.11,3.04-.02-1.05-.05-2.06-.09-3.04-1-26.3-4.14-38.87-22.11-59.27-41.2-46.8-65.97-65.84-128.62-38.55-124.59,54.35-153.98,111.32-245.86,190.19-60.94,52.32-129.84,34.58-183.78-7.03C16.19,934.78,0,855.5,0,772.44H1254.81Z"/><path class="cls-3" d="M388.86,748.76c2.03-3.16,4.16-6.25,6.44-9.23-6.61-9.65-12.98-19.11-19.06-28.46-15.84,11.07-30.19,23.61-42.7,37.7h55.33Zm-101.44,0c18.86-26.13,42.77-48.35,70.45-66.75-7.25-11.83-14.02-23.41-20.31-34.73-43.84,26.18-79.83,60.01-103.84,101.48h53.7Zm16.69-170.25c-69.98,39.19-126.02,95.5-157.89,170.25h46c27.66-55.04,73.14-98.8,129.62-131.31l-.94-1.81c-6.3-12.76-11.91-25.16-16.8-37.13Zm428.53,170.25c-132.78-121.54-192.31-195.41-210.77-306.8-15.94-96.45,11.17-183.55,74.78-258.85-76.72,64.98-113.88,140.5-114.62,224.95-.91,103.78,38.62,174.73,140.34,304.06,9.55,12.12,19.5,24.34,29.88,36.64h80.39Zm-126.97,0c-5.02-6.17-9.94-12.3-14.77-18.44-105.94-134.69-147.7-211.77-146.7-322.38,.8-88.69,40.91-163.77,117.89-230.58-109.05,73.62-162.09,159.3-162.17,257.79-.02,104.51,45.05,177.38,159.23,313.61h46.52Zm323.52,0c-50.02-40.41-114.05-69.24-182.44-85.65-14.28-13.32-27.92-27.14-40.8-41.34,8.89,1.37,17.75,2.91,26.55,4.65,95.81,18.93,186.09,60.3,249.14,122.34h44.44c-60.41-74.85-153.59-124.75-256.03-149.75-31.62-7.71-64.05-13.08-96.7-16.07-8.73-11.32-17.02-22.8-24.77-34.49,44.62,2.25,89.28,8.67,132.44,19.2,118.62,28.98,225.98,89.25,290.64,181.11h44.06c-88.77-147.6-291.16-232.27-490.72-239.2-61.75-112.59-63.17-197.56,4.92-308.32,5.48-8.94,2.33-4.48,8.72-13.76-93.94,94.59-109.17,210.3-52.47,321.72l.16,.27,.78,1.54c.61,1.2,1.22,2.38,1.86,3.58l.92,1.76,.3,.61c.52,.93,1.02,1.86,1.52,2.82l1.16,2.11c.64,1.18,1.28,2.38,1.97,3.55l.92,1.69c.72,1.25,1.39,2.52,2.12,3.77l.86,1.54c.73,1.27,1.47,2.52,2.2,3.8l.97,1.64c.73,1.25,1.47,2.5,2.22,3.77l1.06,1.77c.73,1.2,1.47,2.4,2.17,3.6,7.12,11.61,14.81,23.27,23.08,35l.39,.56,.39,.56,.92,1.27c.75,1.05,1.53,2.11,2.27,3.18l.41,.54,.81,1.13,.42,.56c.8,1.1,1.61,2.23,2.45,3.33l.83,1.15,.39,.54,.44,.57,2.06,2.79,.44,.57,1.25,1.69,.44,.57c.69,.93,1.41,1.86,2.14,2.79l.41,.57,.44,.56,.84,1.1c.88,1.12,1.73,2.25,2.61,3.41l.45,.54,.44,.57,.44,.56,.44,.56c1.02,1.3,2.03,2.57,3.05,3.85l.06,.1,.45,.56c10.03,12.61,20.78,25.28,32.2,37.99l.17,.22,.19,.2,.23,.22,.17,.22,.19,.22,.2,.22,.22,.22,.17,.22,.19,.2c1.11,1.25,2.23,2.48,3.36,3.7l.2,.22,.19,.22,.2,.2,.22,.25,.19,.2,.2,.22,.19,.22,.2,.22,.19,.22,.2,.22,2.62,2.82,.19,.22,.2,.22,.61,.66c21.62,23.27,45.53,46.66,71.77,70.12,4.75,4.23,9.58,8.5,14.47,12.73h48.38c-10.08-9.21-21.2-19.72-33.84-32.04,7.5,2.4,14.5,5.02,21.06,7.81l.08,.02,.34,.15,.34,.14,.34,.15c16.02,6.91,29.56,14.89,41.91,23.76h65.33ZM531.66,158.37c-243.95,119.14-292.84,325.67-86.2,590.39h67.23c-108.55-134.15-150.62-206.99-150.58-313.61,.03-106.7,56.02-198.13,169.55-276.78Z"/><path class="cls-2" d="M1260.28,160.82c-343.77-.81-515.66-1.2-515.66-1.2,0,0,170.39,5.56,512.23,19.67,23.02,.96,19.66-18.71,3.42-18.47m-714.33,11.86c83.38,6.57,663.45,24.27,731.16,26.82,6.83,.27,13.8-5.54,14.36-13.74l1.36-20.06c.33-4.8-.06-9.09-2.52-12.71-2.45-3.6-5.83-5.49-9.83-5.46l-733.59,1.59c-5.59,.02-10.17,4.43-10.41,9.99l-.11,2.7c-.23,5.63,4,10.43,9.58,10.88Z"/><path class="cls-2" d="M1252.59,13.05c-335.73,73.95-503.59,110.88-503.59,110.88,0,0,167.52-31.59,504.25-92.09,22.7-4.09,15.14-22.54-.66-18.79M548.03,171.89c83.02-10.24,654.89-108.97,721.75-120.02,6.73-1.1,12.39-8.21,11.3-16.36l-2.67-19.94c-.64-4.75-1.89-8.86-5-11.93-3.12-3.04-6.8-4.19-10.72-3.41L544.23,148.62c-5.45,1.12-9.06,6.37-8.17,11.88l.42,2.67c.88,5.54,6,9.41,11.55,8.72Z"/></g><g><path class="cls-1" d="M94.03,1751.43v-107.97l-31.74,3.12c-3.4,.19-5.95-.66-7.65-2.55-1.7-1.89-2.55-4.53-2.55-7.94,0-6.99,4.91-10.58,14.74-10.77h5.1l4.25-.28,18.42-28.34c-7.94-7.55-18.33-15.96-31.17-25.22-5.48-3.97-8.22-7.74-8.22-11.33,0-6.61,3.59-9.92,10.77-9.92,2.27,0,5.38,1.51,9.35,4.53,7.93-14.36,14.17-27.58,18.7-39.67,2.83-7.37,7.08-11.05,12.75-11.05,7.74,0,11.62,3.4,11.62,10.2,0,7.93-9.35,25.13-28.05,51.58l13.89,12.19,1.7,1.13,16.15-30.04c3.4-6.61,7.65-9.92,12.75-9.92,7.37,0,11.05,3.5,11.05,10.49,0,3.97-4.92,12.85-14.74,26.64l-16.15,24.09c-5.86,8.69-11.62,16.63-17.29,23.8l32.87-1.42-4.25-15.3c0-5.48,3.12-8.22,9.35-8.22,4.34,0,8.31,4.72,11.9,14.17l2.55,6.8c2.45,6.23,4.06,10.77,4.82,13.6,1.32,5.67,1.98,8.69,1.98,9.07,0,6.23-3.31,9.35-9.92,9.35-5.29,0-9.07-4.53-11.34-13.6l-19.55,2.55v110.24c0,8.31-3.68,12.47-11.05,12.47s-11.05-4.16-11.05-12.47Zm-39.39-17.43c-1.7-1.6-2.55-4.11-2.55-7.51,0-2.27,.75-5.48,2.27-9.64,4.34-11.33,7.27-26.82,8.78-46.48,.57-8.12,3.97-12.19,10.2-12.19,3.4,0,5.9,.81,7.51,2.41,1.6,1.61,2.41,4.21,2.41,7.79l-2.27,24.37c-3.97,20.59-6.99,33.25-9.07,37.97-.76,1.7-1.98,3.07-3.68,4.11s-3.59,1.56-5.67,1.56c-3.59,0-6.23-.81-7.93-2.41Zm77.93-21.68c-1.51-14.74-3.21-27.11-5.1-37.12l-1.42-9.35c-.38-2.45,.33-4.34,2.12-5.67,1.79-1.32,4.39-1.98,7.79-1.98s5.85,1.23,7.37,3.68c1.51,2.27,3.49,9.45,5.95,21.54l5.1,27.21,.85,7.94c.19,3.21-.66,5.67-2.55,7.37-1.89,1.7-4.72,2.55-8.5,2.55-6.62,0-10.49-5.38-11.62-16.15Zm33.3,47.04c-1.61-2.08-2.41-5.38-2.41-9.92v-165.78c-1.32-18.32,7.18-26.82,25.5-25.5h31.74v-39.11c0-9.44,3.3-14.17,9.92-14.17,3.4,0,5.85,1.04,7.37,3.12,1.51,2.08,2.36,5.29,2.55,9.63,.19,11.15-.19,24.66-1.13,40.52h35.71c18.51-1.51,27.02,6.99,25.5,25.5v149.35c0,9.82-2.12,16.96-6.38,21.4-4.25,4.44-11.19,6.47-20.83,6.09h-17.85c-7.93,0-11.9-3.59-11.9-10.77,0-6.8,3.97-10.2,11.9-10.2h13.04c3.4,0,6.09-.95,8.08-2.83,1.98-1.89,2.98-4.63,2.98-8.22v-139.99c0-3.21-.9-5.76-2.69-7.65-1.8-1.89-4.39-2.83-7.79-2.83h-30.32c-.57,18.89-1.61,32.59-3.12,41.09,2.08-1.89,4.15-2.83,6.23-2.83,1.89,0,4.63,2.6,8.22,7.79,3.59,5.2,7.65,12.71,12.19,22.53,9.63,20.59,14.45,32.78,14.45,36.56,0,3.4-.81,5.95-2.41,7.65-1.61,1.7-4.21,2.55-7.79,2.55-1.89,0-3.64-.8-5.24-2.41-1.61-1.6-2.88-3.83-3.83-6.66-1.51-4.91-4.72-13.04-9.64-24.37l-13.6-32.87c-3.02,18.14-8.41,34.48-16.15,49.03-7.18,13.6-14.17,20.4-20.97,20.4-6.42,0-9.63-3.68-9.63-11.05,0-2.83,1.7-6.23,5.1-10.2,13.79-16.06,22.29-38.92,25.5-68.58l1.98-28.62h-25.79c-3.21,0-5.72,.9-7.51,2.69-1.8,1.8-2.69,4.3-2.69,7.51v161.25c0,4.53-.85,7.84-2.55,9.92-1.7,2.08-4.35,3.12-7.94,3.12s-6.19-1.04-7.79-3.12Z"/><path class="cls-1" d="M357.63,1735.55c0-2.64,1.51-6.52,4.53-11.62,3.4-6.04,6.33-12.09,8.79-18.14,3.21-7.93,5.57-15.11,7.08-21.54,.75-3.4,2.22-5.95,4.39-7.65,2.17-1.7,4.77-2.55,7.79-2.55,7.75,0,11.62,3.97,11.62,11.9,0,5.86-3.59,17.48-10.77,34.86-7.37,17.95-14.45,26.92-21.25,26.92-8.13,0-12.19-4.06-12.19-12.19Zm24.37-115.34v-76.23c0-10.39,2.31-18,6.94-22.81,4.63-4.82,11.95-6.94,21.96-6.38h151.61c10.58,0,18.23,2.32,22.95,6.94,4.72,4.63,6.7,12.04,5.95,22.25v76.23c0,10.58-2.32,18.28-6.94,23.1-4.63,4.82-11.95,6.85-21.96,6.09h-151.61c-20.78,1.51-30.42-8.22-28.91-29.19Zm92.95-84.17h-58.09c-7.75,0-11.62,3.88-11.62,11.62v22.96h69.71v-34.57Zm0,54.98h-69.71v25.5c0,7.75,3.87,11.62,11.62,11.62h58.09v-37.12Zm-31.74,162.95c-12.09-1.7-18.14-7.75-18.14-18.14v-58.09c0-9.63,4.06-14.45,12.19-14.45s11.9,4.82,11.9,14.45v45.63c0,3.21,1.32,5.57,3.97,7.08,2.64,1.51,7.08,2.55,13.32,3.12,6.24,.57,15.59,.85,28.06,.85,15.49,0,24.94-.85,28.34-2.55,3.59-1.7,6.04-7.27,7.37-16.72,.75-4.91,2.08-8.5,3.97-10.77,1.89-2.27,4.63-3.4,8.22-3.4,7.94,0,11.9,4.16,11.9,12.47,0,17-3.12,28.34-9.35,34.01-6.42,5.85-25.7,8.79-57.81,8.79-18.14,0-32.78-.76-43.92-2.27Zm39.39-65.46l-4.82-7.94c-1.32-2.08-2.46-4.01-3.4-5.81-.95-1.79-1.42-3.16-1.42-4.11,0-6.99,3.87-10.49,11.62-10.49,4.53,0,10.2,4.35,17,13.04,6.99,9.26,10.49,15.49,10.49,18.7,0,8.5-4.16,12.75-12.47,12.75-5.29,0-10.96-5.38-17-16.15Zm85.87-140.84c0-7.74-3.88-11.62-11.62-11.62h-59.23v34.57h70.85v-22.96Zm0,68.86v-25.5h-70.85v37.12h59.23c7.74,0,11.62-3.87,11.62-11.62Zm26.92,123.56c-2.46-1.7-4.44-4.25-5.95-7.65-2.46-5.48-6.14-12.47-11.05-20.97-3.4-5.67-7.18-11.34-11.33-17-3.4-4.91-5.1-8.22-5.1-9.92,0-7.18,3.78-10.77,11.34-10.77,5.85,0,14.36,8.41,25.5,25.22,11.52,17.19,17.29,27.4,17.29,30.61,0,8.69-4.35,13.04-13.04,13.04-2.65,0-5.2-.85-7.65-2.55Z"/><path class="cls-1" d="M670.83,1748.87c0-8.12,4.06-12.19,12.19-12.19h8.79c6.61,0,10.1-3.59,10.49-10.77v-61.21l-9.63,2.83c-10.96,3.4-17.29,5.1-18.99,5.1-7.93,0-11.9-4.06-11.9-12.19,0-6.61,5.1-11.05,15.3-13.32l24.37-5.95,.85-.28v-59.79h-26.35c-8.5,0-12.75-3.78-12.75-11.34s4.25-10.77,12.75-10.77h26.35v-41.09c0-8.88,3.87-13.32,11.62-13.32s11.62,4.44,11.62,13.32v41.09h17.29c8.5,0,12.75,3.68,12.75,11.05s-4.25,11.05-12.75,11.05h-17.29v53.28l15.3-4.53,7.65-1.7c6.61,0,9.92,3.4,9.92,10.2,0,3.59-1.32,6.52-3.97,8.79-2.46,2.27-12.09,5.86-28.91,10.77v75.1c0,9.45-2.36,16.44-7.08,20.97-5.29,5.1-12.47,7.46-21.54,7.08h-13.89c-8.12,0-12.19-4.06-12.19-12.19Zm71.98-2.41c-2.27-1.8-3.4-4.58-3.4-8.36s1.13-6.56,3.4-8.36c2.27-1.79,5.85-2.69,10.77-2.69h92.38c8.12-29.28,15.4-65.46,21.82-108.54,2.27-15.3,7.46-22.96,15.59-22.96,4.15,0,7.23,.85,9.21,2.55,1.98,1.7,2.98,4.35,2.98,7.93l-1.13,8.22-26.92,112.79h38.82c9.25,0,13.89,3.68,13.89,11.05s-4.63,11.05-13.89,11.05h-152.75c-4.92,0-8.5-.9-10.77-2.69Zm22.25-169.18c-2.17-1.79-3.26-4.58-3.26-8.36s1.08-6.52,3.26-8.22c2.17-1.7,5.71-2.55,10.63-2.55h44.78v-38.26c0-8.88,3.97-13.32,11.9-13.32s11.62,4.44,11.62,13.32v38.26h56.96c4.91,0,8.45,.85,10.63,2.55,2.17,1.7,3.26,4.44,3.26,8.22s-1.09,6.57-3.26,8.36c-2.17,1.8-5.72,2.69-10.63,2.69h-125.26c-4.91,0-8.46-.89-10.63-2.69Zm26.36,127.24c-2.17-2.55-3.64-6.56-4.39-12.04l-5.95-35.99-9.07-42.51c0-3.59,.89-6.19,2.69-7.79,1.79-1.6,4.77-2.41,8.93-2.41,6.23,0,11.05,6.99,14.45,20.97,.75,3.4,3.3,14.83,7.65,34.29l1.98,9.63c2.83,13.23,4.25,22.49,4.25,27.77,0,4.16-.95,7.18-2.83,9.07-1.89,1.89-4.82,2.83-8.79,2.83s-6.76-1.28-8.93-3.83Z"/><path class="cls-1" d="M975.53,1663.01c-3.02,0-5.29-.75-6.8-2.27-1.51-1.51-2.27-3.49-2.27-5.95,0-3.02,.89-5.43,2.69-7.23s4.77-4.11,8.93-6.94c10.01-6.99,18.32-13.46,24.94-19.41,6.61-5.95,12.75-12.23,18.42-18.84v-54.41h-42.79c-7.37,0-11.05-3.12-11.05-9.35s3.68-9.35,11.05-9.35h42.79v-14.45c0-6.99,3.3-10.49,9.92-10.49s9.92,3.5,9.92,10.49v14.45h37.97c7.37,0,11.05,3.12,11.05,9.35s-3.68,9.35-11.05,9.35h-37.97v66.88c1.7-1.7,3.78-2.55,6.23-2.55s10.77,4.54,24.94,13.6c14.36,9.07,21.54,16.06,21.54,20.97,0,2.83-.76,5.06-2.27,6.66-1.51,1.61-3.78,2.41-6.8,2.41-2.27,0-8.32-4.15-18.14-12.47l-22.95-17.29-2.55-2.55v7.37c0,3.4-.85,6.05-2.55,7.93-1.7,1.89-4.16,2.83-7.37,2.83-6.62,0-9.92-3.59-9.92-10.77v-7.93c-5.86,7.37-13.79,15.68-23.8,24.94-10.58,10.02-17.95,15.02-22.1,15.02Zm-6.52-47.75c-1.32-1.23-1.98-3.07-1.98-5.53,0-2.64,.94-5.57,2.83-8.79,7.93-13.41,13.22-24.84,15.87-34.29,2.83-9.07,6.52-13.6,11.05-13.6,5.67,0,8.5,2.65,8.5,7.93,0,1.89-.57,4.16-1.7,6.8-1.13,2.65-1.89,4.72-2.27,6.23,12.28,10.58,18.42,17.48,18.42,20.69,0,5.48-2.55,8.22-7.65,8.22-2.65,0-5.1-1.7-7.37-5.1l-8.5-10.2-.57-.28c-8.69,20.22-15.49,30.23-20.4,30.04-2.83-.19-4.92-.89-6.23-2.13Zm257.17,119.87c2.17,1.98,3.26,4.77,3.26,8.36,0,8.5-5.95,12.75-17.85,12.75-34.76,0-59.42-.1-73.96-.28-25.89-.19-47.61-2.55-65.18-7.08-12.85-3.4-24.65-8.88-35.42-16.44-25.32,18.89-44.31,28.34-56.96,28.34-6.62,0-9.92-3.5-9.92-10.49,0-4.92,4.44-8.79,13.32-11.62,11.9-3.78,24.84-10.29,38.82-19.55-7.56-8.12-13.7-17.47-18.42-28.06-11.9,12.47-20.12,18.7-24.65,18.7-6.05,0-9.07-3.21-9.07-9.64,0-3.02,1.98-5.95,5.95-8.79,13.04-9.44,25.31-22.95,36.84-40.52,4.15-6.23,7.75-9.35,10.77-9.35,6.42,0,9.63,2.46,9.63,7.37,0,1.89-1.8,5.58-5.38,11.05h40.53c5.48,0,9.44,1.04,11.9,3.12,2.45,2.08,3.68,5.29,3.68,9.64,0,2.27-.81,5.34-2.41,9.21-1.61,3.87-3.92,8.08-6.94,12.61-5.29,7.75-12.85,16.06-22.67,24.94,18.89,10.2,46,15.3,81.33,15.3,10.2,0,21.63-.19,34.29-.57,12.66-.38,21.44-.66,26.36-.85l22.95-.85c3.97-.19,7.04,.71,9.21,2.69Zm-166.21-55.69v-.28c0-1.7-1.42-2.55-4.25-2.55h-39.67l-.85,1.13c5.85,12.28,12.94,22.29,21.25,30.04,14.74-13.04,22.57-22.48,23.52-28.34Zm16.15-111.37l-3.12,7.37c14.92,10.39,22.39,18.04,22.39,22.95,0,6.05-2.93,9.07-8.79,9.07-1.89,0-5.38-2.83-10.49-8.5-4.53-4.91-7.65-8.12-9.35-9.64-2.08,5.1-4.44,9.45-7.08,13.04-2.46,3.21-4.63,4.82-6.52,4.82-5.86,0-8.79-2.45-8.79-7.37,0-.75,.94-2.83,2.83-6.23,.57-1.51,1.7-3.97,3.4-7.37,4.15-8.88,7.18-16.34,9.07-22.39,2.27-7.37,5.48-11.05,9.63-11.05,5.85,0,8.79,2.55,8.79,7.65,0,2.27-.66,4.82-1.98,7.65Zm15.3-38.82c0-6.23,3.49-9.35,10.49-9.35h113.36c6.99,0,10.49,3.12,10.49,9.35s-3.5,9.07-10.49,9.07h-51.01l-5.67,18.99-1.13,4.82-1.42,3.97h42.51c7.18,0,12.37,1.66,15.59,4.96,3.21,3.31,4.63,8.55,4.25,15.73v113.07c0,7.56-1.56,12.99-4.68,16.29-3.12,3.31-8.17,4.68-15.16,4.11h-76.8c-6.99,0-12.09-1.6-15.3-4.82-3.21-3.21-4.63-8.4-4.25-15.59v-113.07c0-7.55,1.56-13.04,4.68-16.44,3.12-3.4,8.08-4.82,14.88-4.25h17l5.38-27.77h-42.22c-6.99,0-10.49-3.02-10.49-9.07Zm43.36,54.41h-8.5c-4.35,0-6.52,2.27-6.52,6.8v105.42c0,4.53,2.17,6.8,6.52,6.8h8.5v-119.02Zm34.01,0h-17.85v26.64h17.85v-26.64Zm0,70.56v-27.49h-17.85v27.49h17.85Zm0,48.46v-32.31h-17.85v32.31h17.85Zm15.87,0h9.07c2.27,0,3.87-.57,4.82-1.7,.94-1.13,1.51-2.83,1.7-5.1v-105.42c0-4.53-2.17-6.8-6.52-6.8h-9.07v119.02Z"/></g></g></g></svg>