<svg width="8" height="8" viewBox="0 0 8 8" fill="none" xmlns="http://www.w3.org/2000/svg">
<path fill-rule="evenodd" clip-rule="evenodd" d="M0.853553 0.146447C0.658291 -0.0488155 0.341709 -0.0488155 0.146447 0.146447C-0.0488155 0.341709 -0.0488155 0.658291 0.146447 0.853553L3.16788 3.87499L0.146447 6.89642C-0.0488155 7.09168 -0.0488155 7.40827 0.146447 7.60353C0.341709 7.79879 0.658291 7.79879 0.853553 7.60353L3.87499 4.58209L6.89634 7.60345C7.09161 7.79871 7.40819 7.79871 7.60345 7.60345C7.79871 7.40819 7.79871 7.09161 7.60345 6.89634L4.58209 3.87499L7.60345 0.85363C7.79871 0.658368 7.79871 0.341786 7.60345 0.146523C7.40819 -0.0487388 7.09161 -0.0487386 6.89634 0.146523L3.87499 3.16788L0.853553 0.146447Z" fill="#545341"/>
</svg>
