<svg width="179" height="35" viewBox="0 0 179 35" fill="none" xmlns="http://www.w3.org/2000/svg">
<path d="M64.4589 16.9179L64.8863 16.0632L32.4432 0L0 16.0632L0.427368 16.9179L7.08842 13.6168V34.0347H4.60526V34.9926H60.2811V34.0347H57.7979V13.6168L64.4589 16.9179ZM42.5895 14.14C42.9137 14.1842 43.0611 14.3832 43.1274 14.5747H42.0516C42.1179 14.3758 42.2653 14.1842 42.5895 14.14ZM32.4358 11.2663C32.76 11.3105 32.9074 11.5095 32.9737 11.7011H31.8979C31.9642 11.5021 32.1116 11.3105 32.4358 11.2663ZM22.2821 14.14C22.6063 14.1842 22.7537 14.3832 22.82 14.5747H21.7442C21.8105 14.3758 21.9579 14.1842 22.2821 14.14ZM14.1695 34.0421V27.4179H50.7021V34.0421H14.1768H14.1695ZM56.8326 34.0421H51.66V26.46H33.3937V26.0842H39.9737V18.5463H24.8979V26.0842H31.4779V26.46H13.2189V34.0421H8.04632V13.1453L21.8105 6.32947V13.2779C21.5379 13.3737 21.3095 13.5284 21.1326 13.7421C20.6832 14.2947 20.7495 15.0242 20.7568 15.1053L20.8011 15.5326H23.7705L23.8147 15.1053C23.8221 15.0242 23.8884 14.3021 23.4389 13.7421C23.2621 13.5284 23.0337 13.3737 22.7611 13.2779V5.85789L31.9642 1.30421V10.4116C31.6916 10.5074 31.4632 10.6547 31.2863 10.8758C30.8368 11.4284 30.9032 12.1579 30.9105 12.2389L30.9547 12.6663H33.9242L33.9684 12.2389C33.9758 12.1579 34.0421 11.4358 33.5926 10.8758C33.4158 10.6621 33.1874 10.5074 32.9147 10.4116V1.30421L42.1105 5.85789V13.2853C41.8379 13.3811 41.6095 13.5358 41.4326 13.7495C40.9832 14.3021 41.0495 15.0316 41.0568 15.1126L41.1011 15.54H44.0705L44.1147 15.1126C44.1221 15.0316 44.1884 14.3095 43.7389 13.7495C43.5621 13.5358 43.3337 13.3811 43.0611 13.2853V6.32947L56.8326 13.1453V34.0347V34.0421ZM32.4358 25.1263H25.8558V19.5042H39.0158V25.1263H32.4358Z" fill="white"/>
<path d="M14.8474 33.8358H25.8558V27.9705H14.8474V33.8358ZM15.8053 28.9284H24.8979V32.8779H15.8053V28.9284Z" fill="white"/>
<path d="M26.939 33.8358H37.9474V27.9705H26.939V33.8358ZM27.8969 28.9284H36.9895V32.8779H27.8969V28.9284Z" fill="white"/>
<path d="M39.0232 27.9779V33.8432H50.0316V27.9779H39.0232ZM49.0737 32.8853H39.9811V28.9358H49.0737V32.8853Z" fill="white"/>
<path d="M45.699 30.4316H43.3484V31.5663H45.699V30.4316Z" fill="white"/>
<path d="M33.6147 30.4316H31.2642V31.5663H33.6147V30.4316Z" fill="white"/>
<path d="M21.2874 30.4316H18.9368V31.5663H21.2874V30.4316Z" fill="white"/>
<path d="M74.8853 28.4274C74.6642 30.8517 74.1779 33.0106 73.4116 34.919L72.5642 34.6464C73.3305 32.819 73.8168 30.719 74.0084 28.3243L74.8779 28.4348L74.8853 28.4274ZM81.7526 26.5485L80.9053 26.7695C80.7653 26.1727 80.6326 25.598 80.4705 25.0527C78.0168 25.819 75.5926 26.3864 73.2421 26.718L72.9989 25.8706C73.161 25.7895 73.3011 25.7085 73.4337 25.598C74.7453 24.2643 76.2705 22.1348 77.9874 19.1874C76.241 19.5117 74.5537 19.7843 72.94 19.9759L72.7189 19.1285C72.8295 19.0769 72.9621 18.9369 73.1021 18.7748C74.7084 16.3727 76.1305 13.5138 77.3316 10.1832L78.201 10.5664C76.7274 14.2506 75.2832 17.0801 73.8095 19.0695C75.3347 18.9074 76.8895 18.6348 78.4958 18.3032C79.1516 17.1022 79.8589 15.8201 80.5958 14.4348L81.4432 14.759C78.4958 20.2116 76.1232 23.8664 74.3253 25.7453C76.3442 25.3622 78.3337 24.8759 80.2421 24.2422C79.94 23.1811 79.6158 22.1422 79.2326 21.1622L79.9989 20.919C80.6547 22.5548 81.2516 24.4116 81.7453 26.5338L81.7526 26.5485ZM78.7021 33.9095L77.8326 34.1011C77.5084 31.9201 77.1547 29.9822 76.7126 28.2948L77.501 28.1032C77.9358 29.9011 78.3484 31.839 78.7021 33.9095ZM82.1358 32.5759L81.3179 32.7969C80.9126 31.0211 80.3895 29.3338 79.7337 27.698L80.5 27.4548C81.0968 28.9285 81.6421 30.6453 82.1358 32.5832V32.5759ZM90.3147 11.2001C90.3147 12.6738 90.3663 14.0369 90.4768 15.319H96.0916V32.878C96.0916 34.1306 95.4947 34.7569 94.2937 34.7569H91.7295L91.4863 33.8285L93.9916 33.8801C94.8095 33.8801 95.2221 33.4674 95.2221 32.679V16.2106H90.5579C91.0516 20.8969 92.2747 24.4411 94.2642 26.8948L93.7189 27.6611C91.7589 25.3401 90.4768 22.0169 89.9021 17.7064C89.1358 22.2085 87.861 25.5022 86.0558 27.6317L85.4295 26.9243C87.3674 24.6917 88.6716 21.118 89.3568 16.2106H84.4789V34.9706H83.58V15.3116H89.6589C89.5484 14.2211 89.4968 13.1306 89.4968 12.0401H85.54V11.1927H90.3147V11.2001Z" fill="white"/>
<path d="M104.248 26.2463C103.379 29.2968 102.178 31.9421 100.653 34.1821L99.8642 33.6663C101.419 31.4853 102.591 28.9505 103.357 26.0621L104.256 26.2537L104.248 26.2463ZM120.172 11.6053V23.3284H104.027V11.6053H120.172ZM111.609 17.0284V12.5042H104.956V17.0284H111.609ZM111.609 17.8979H104.956V22.4221H111.609V17.8979ZM109.156 34.6389C107.52 34.6389 106.732 33.7695 106.732 32.0232V26.1358H107.66V31.8316C107.66 33.0842 108.235 33.74 109.436 33.74H115.758C116.605 33.74 117.173 33.5779 117.475 33.2463C117.909 32.8116 118.212 31.5295 118.374 29.4295L119.273 29.7316C119.111 31.9937 118.757 33.4158 118.182 34.0126C117.718 34.4253 116.952 34.6389 115.92 34.6389H109.156ZM115.021 29.761L114.152 30.1147C113.223 28.2358 112.214 26.5705 111.123 25.0968L111.971 24.7947C113.142 26.32 114.152 27.9853 115.021 29.7537V29.761ZM112.538 17.0284H119.273V12.5042H112.538V17.0284ZM119.273 17.8979H112.538V22.4221H119.273V17.8979ZM124.291 32.8116L123.473 33.1947C122.109 30.3579 120.636 27.8747 119 25.7232L119.869 25.421C121.586 27.7421 123.06 30.1958 124.283 32.8116H124.291Z" fill="white"/>
<path d="M147.678 17.441V18.34H141.297C140.317 19.0179 139.337 19.6221 138.408 20.1674C139.661 21.42 140.619 22.8126 141.245 24.3379V24.3084C141.326 24.4189 141.407 24.5295 141.518 24.6326C144.023 23.7042 146.396 22.1789 148.658 20.0495L149.284 20.6758C147.184 22.7463 144.76 24.2716 142.034 25.3105C144.325 28.0663 147.457 30.38 151.414 32.2663L150.92 33.0842C147.074 31.2053 144.053 28.9137 141.813 26.1874C142.056 27.1968 142.196 28.2579 142.247 29.3779C142.247 31.4263 141.945 32.841 141.4 33.6589C140.855 34.5063 139.492 34.941 137.281 34.941H136.331L136.028 34.1526H137.148C138.946 34.101 140.066 33.8284 140.531 33.3053C141.046 32.6495 141.319 31.3453 141.319 29.3779C141.289 28.5084 141.208 27.7126 141.046 26.9758C137.996 29.5916 133.766 31.721 128.424 33.3274L127.931 32.5095C133.575 30.8442 137.885 28.6926 140.825 26.0474C140.553 25.0674 140.169 24.1389 139.705 23.2916C137.089 25.421 133.435 27.16 128.741 28.5231L128.277 27.7053C133.052 26.3937 136.699 24.6768 139.263 22.5547C138.799 21.8179 138.283 21.14 137.679 20.5358L136.478 21.1326C134.459 22.061 132.035 22.8789 129.227 23.6158L128.712 22.8495C131.489 22.1937 133.862 21.4347 135.829 20.5579C137.333 19.8726 138.688 19.1432 139.919 18.3253H131.136V17.4263H147.656L147.678 17.441ZM140.346 13.0274H150.655V17.2568H149.726V13.9337H129.117V17.2568H128.188V13.0274H139.425C139.072 12.0179 138.718 11.0895 138.335 10.2716L139.263 10.1095C139.646 10.9789 140.029 11.9368 140.354 13.0274H140.346Z" fill="white"/>
<path d="M174.315 28.3463H178.677V29.2453H154.685V28.3463H159.047V11.6053H174.315V28.3463ZM163.763 30.5274C161.715 32.2442 159.18 33.7474 156.181 35L155.636 34.2926C158.583 33.04 161.059 31.5663 163.078 29.901L163.756 30.5274H163.763ZM173.416 15.8863V12.5042H159.946V15.8863H173.416ZM173.416 20.0053V16.7042H159.946V20.0053H173.416ZM173.416 24.1242V20.8526H159.946V24.1242H173.416ZM173.416 28.3537V24.9421H159.946V28.3537H173.416ZM177.667 34.1895L177.152 34.9558C174.698 33.0989 172.163 31.6547 169.547 30.5937L170.041 29.8863C172.819 31.0579 175.383 32.5021 177.675 34.1968L177.667 34.1895Z" fill="white"/>
</svg>
